<?xml version="1.0" encoding="UTF-8"?>
<svg width="28px" height="27px" viewBox="0 0 28 27" version="1.1" xmlns="http://www.w3.org/2000/svg" xmlns:xlink="http://www.w3.org/1999/xlink">
    <!-- Generator: Sketch 43.2 (39069) - http://www.bohemiancoding.com/sketch -->
    <title>Shape</title>
    <desc>Created with Sketch.</desc>
    <defs></defs>
    <g id="Homepage" stroke="none" stroke-width="1" fill="none" fill-rule="evenodd">
        <g id="1366-x-768-copy-20" transform="translate(-749.000000, -2704.000000)" fill="#101B28">
            <g id="Group-4" transform="translate(571.000000, 2688.000000)">
                <path d="M184.289268,24.7357937 L184.289268,42.8572164 L178.351136,42.8572164 L178.351136,24.7357937 L184.289268,24.7357937 Z M184.680369,19.1301066 C184.680369,20.870097 183.390852,22.2623781 181.320321,22.2623781 L181.282373,22.2623781 C179.288805,22.2623781 178,20.870097 178,19.1301066 C178,17.3533126 179.328057,16 181.359455,16 C183.390852,16 184.641828,17.3533126 184.680369,19.1301066 Z M205.704444,32.4669464 L205.704206,42.8572164 L199.766312,42.8572164 L199.766312,33.162245 C199.766312,30.7270763 198.907029,29.0653836 196.757401,29.0653836 C195.116866,29.0653836 194.139708,30.1856069 193.710541,31.2675834 C193.553532,31.6553438 193.514991,32.1956104 193.514991,32.7372 L193.514991,42.8576975 L187.576148,42.8576975 C187.576148,42.8576975 187.654415,26.4366954 187.576148,24.7362748 L193.514991,24.7362748 L193.514991,27.3030223 C194.303121,26.0691409 195.714664,24.3102676 198.867421,24.3102676 C202.774986,24.3102676 205.704444,26.9008292 205.704444,32.4669464 Z" id="Shape"></path>
            </g>
        </g>
    </g>
</svg>