<?xml version="1.0" encoding="UTF-8"?>
<svg width="30px" height="30px" viewBox="0 0 30 30" version="1.1" xmlns="http://www.w3.org/2000/svg" xmlns:xlink="http://www.w3.org/1999/xlink">
    <!-- Generator: Sketch 43.2 (39069) - http://www.bohemiancoding.com/sketch -->
    <title>Shape</title>
    <desc>Created with Sketch.</desc>
    <defs></defs>
    <g id="Homepage" stroke="none" stroke-width="1" fill="none" fill-rule="evenodd">
        <g id="1366-x-768-copy-20" transform="translate(-668.000000, -2705.000000)" fill="#101B28">
            <g id="Group-4" transform="translate(571.000000, 2688.000000)">
                <path d="M111.769625,17 C107.758775,17 107.255419,17.0178125 105.680124,17.090625 C104.107905,17.16375 103.034735,17.4165625 102.095711,17.7875 C101.124382,18.170625 100.300429,18.683125 99.4795519,19.5171875 C98.65806,20.3509375 98.1534732,21.1878125 97.775033,22.1740625 C97.4088999,23.128125 97.1596833,24.2184375 97.088918,25.8146875 C97.0184605,27.4146875 97,27.92625 97,32 C97,36.07375 97.0178451,36.5834375 97.0892257,38.1834375 C97.1615293,39.7803125 97.4104383,40.8703125 97.7753407,41.8240625 C98.1528578,42.810625 98.6574446,43.6475 99.4786289,44.48125 C100.299198,45.315625 101.123151,45.829375 102.093865,46.2125 C103.033505,46.5834375 104.106982,46.83625 105.678893,46.909375 C107.254189,46.9821875 107.757237,47 111.767779,47 C115.778937,47 116.280754,46.9821875 117.85605,46.909375 C119.428269,46.83625 120.502669,46.5834375 121.442308,46.2125 C122.41333,45.829375 123.236053,45.315625 124.056622,44.48125 C124.878114,43.6475 125.382701,42.810625 125.761141,41.824375 C126.124197,40.8703125 126.373414,39.78 126.447256,38.18375 C126.518021,36.58375 126.536481,36.07375 126.536481,32 C126.536481,27.92625 126.518021,27.415 126.447256,25.815 C126.373414,24.218125 126.124197,23.128125 125.761141,22.174375 C125.382701,21.1878125 124.878114,20.3509375 124.056622,19.5171875 C123.23513,18.6828125 122.413638,18.1703125 121.441385,17.7875 C120.4999,17.4165625 119.426115,17.16375 117.853896,17.090625 C116.278601,17.0178125 115.777091,17 111.76501,17 L111.769625,17 Z M110.444777,19.703125 C110.837986,19.7025 111.27673,19.703125 111.769625,19.703125 C115.712787,19.703125 116.180145,19.7175 117.737287,19.789375 C119.177206,19.85625 119.9587,20.100625 120.479286,20.3059375 C121.168478,20.5778125 121.659835,20.9028125 122.176421,21.4278125 C122.693314,21.9528125 123.013296,22.4528125 123.281589,23.1528125 C123.483731,23.6809375 123.724641,24.4746875 123.790175,25.9371875 C123.860941,27.5184375 123.876324,27.9934375 123.876324,31.9965625 C123.876324,35.9996875 123.860941,36.4746875 123.790175,38.0559375 C123.724333,39.5184375 123.483731,40.3121875 123.281589,40.8403125 C123.013912,41.5403125 122.693314,42.03875 122.176421,42.5634375 C121.659527,43.0884375 121.168785,43.4134375 120.479286,43.6853125 C119.959315,43.8915625 119.177206,44.1353125 117.737287,44.2021875 C116.180452,44.2740625 115.712787,44.2896875 111.769625,44.2896875 C107.826156,44.2896875 107.358798,44.2740625 105.801963,44.2021875 C104.362045,44.1346875 103.58055,43.8903125 103.059657,43.685 C102.370465,43.413125 101.878185,43.088125 101.361292,42.563125 C100.844398,42.038125 100.524416,41.539375 100.256123,40.8390625 C100.053981,40.3109375 99.8130715,39.5171875 99.7475367,38.0546875 C99.6767715,36.4734375 99.6626185,35.9984375 99.6626185,31.9928125 C99.6626185,27.9871875 99.6767715,27.5146875 99.7475367,25.9334375 C99.8133792,24.4709375 100.053981,23.6771875 100.256123,23.1484375 C100.5238,22.4484375 100.844398,21.9484375 101.361292,21.4234375 C101.878185,20.8984375 102.370465,20.5734375 103.059657,20.3009375 C103.580243,20.0946875 104.362045,19.8509375 105.801963,19.78375 C107.164348,19.72125 107.692318,19.7025 110.444777,19.699375 L110.444777,19.703125 Z M119.652871,22.19375 C118.674465,22.19375 117.880664,22.9990625 117.880664,23.993125 C117.880664,24.986875 118.674465,25.793125 119.652871,25.793125 C120.631277,25.793125 121.425079,24.986875 121.425079,23.993125 C121.425079,22.999375 120.631277,22.193125 119.652871,22.193125 L119.652871,22.19375 Z M111.769625,24.296875 C107.581247,24.296875 104.185439,27.7459375 104.185439,32 C104.185439,36.2540625 107.581247,39.7015625 111.769625,39.7015625 C115.958004,39.7015625 119.352581,36.2540625 119.352581,32 C119.352581,27.7459375 115.957696,24.296875 111.769318,24.296875 L111.769625,24.296875 Z M111.769625,27 C114.488241,27 116.692423,29.2384375 116.692423,32 C116.692423,34.76125 114.488241,37 111.769625,37 C109.050702,37 106.846827,34.76125 106.846827,32 C106.846827,29.2384375 109.050702,27 111.769625,27 L111.769625,27 Z" id="Shape"></path>
            </g>
        </g>
    </g>
</svg>