<?xml version="1.0" encoding="UTF-8"?>
<svg width="126px" height="166px" viewBox="0 0 126 166" version="1.1" xmlns="http://www.w3.org/2000/svg" xmlns:xlink="http://www.w3.org/1999/xlink">
    <!-- Generator: Sketch 43.2 (39069) - http://www.bohemiancoding.com/sketch -->
    <title>kahalogo</title>
    <desc>Created with Sketch.</desc>
    <defs></defs>
    <g id="Page-1" stroke="none" stroke-width="1" fill="none" fill-rule="evenodd" opacity="0.993206522">
        <g id="1366-x-768-copy-21" transform="translate(-284.000000, -1367.000000)" fill="#F6F6F6">
            <g id="KAHA" transform="translate(16.000000, 1185.000000)">
                <g id="kahalogo" transform="translate(268.000000, 182.000000)">
                    <g id="Group-Copy">
                        <polygon id="Fill-347" points="62.6687942 31.2098853 55.5469255 52.8502709 63.3471803 79.1380452 50.518525 79.1380452 45.4901244 58.5931224 45.4901244 79.1380452 33.0743792 79.1380452 33.0743792 31.2098853 45.4901244 31.2098853 45.4901244 49.8303723 51.019611 31.2098853"></polygon>
                        <path d="M88.1563898,31.2098853 L95.2564515,79.1380452 L82.5676452,79.1380452 L81.9020588,70.523292 L77.4596018,70.523292 L76.7138986,79.1380452 L63.8781323,79.1380452 L70.2111579,31.2098853 L88.1563898,31.2098853 Z M81.5763766,62.0270316 C80.9468192,56.598733 80.3167876,49.888429 79.6853339,41.8965954 C78.4195821,51.0743078 77.6255243,57.7846119 77.3022125,62.0270316 L81.5763766,62.0270316 Z" id="Fill-348"></path>
                        <polygon id="Fill-349" points="61.6660533 89.3118578 61.6660533 137.240018 49.250308 137.240018 49.250308 117.109581 45.5345917 117.109581 45.5345917 137.240018 33.1188464 137.240018 33.1188464 89.3118578 45.5345917 89.3118578 45.5345917 106.452376 49.250308 106.452376 49.250308 89.3118578"></polygon>
                        <path d="M88.1121596,89.3118578 L95.2122213,137.240018 L82.523415,137.240018 L81.8578286,128.625265 L77.4153716,128.625265 L76.6696684,137.240018 L63.8339021,137.240018 L70.1669277,89.3118578 L88.1121596,89.3118578 Z M81.5321464,120.129004 C80.902589,114.700705 80.2725574,107.990401 79.6411037,99.9985678 C78.3753519,109.17628 77.5812941,115.886584 77.2579823,120.129004 L81.5321464,120.129004 Z" id="Fill-350"></path>
                        <path d="M113.245439,153.005021 L12.58309,153.005021 L12.58309,12.6306567 L113.245439,12.6306567 L113.245439,153.005021 Z M125.828055,0 L113.245439,0 L12.5826159,0 L0,0 L0,12.6306567 L0,153.005021 L0,165.635677 L12.5826159,165.635677 L113.245439,165.635677 L125.828055,165.635677 L125.828055,153.005021 L125.828055,12.6306567 L125.828055,0 Z" id="Fill-351"></path>
                    </g>
                </g>
            </g>
        </g>
    </g>
</svg>