<?xml version="1.0" encoding="UTF-8"?>
<svg width="158px" height="138px" viewBox="0 0 158 138" version="1.1" xmlns="http://www.w3.org/2000/svg" xmlns:xlink="http://www.w3.org/1999/xlink">
    <!-- Generator: Sketch 43.2 (39069) - http://www.bohemiancoding.com/sketch -->
    <title>Yukfoologo</title>
    <desc>Created with Sketch.</desc>
    <defs>
        <filter x="-10.9%" y="-35.7%" width="121.7%" height="171.4%" filterUnits="objectBoundingBox" id="filter-1">
            <feOffset dx="0" dy="0" in="SourceAlpha" result="shadowOffsetOuter1"></feOffset>
            <feGaussianBlur stdDeviation="5" in="shadowOffsetOuter1" result="shadowBlurOuter1"></feGaussianBlur>
            <feColorMatrix values="0 0 0 0 0.631372549   0 0 0 0 0.105882353   0 0 0 0 0.0862745098  0 0 0 0.5 0" type="matrix" in="shadowBlurOuter1" result="shadowMatrixOuter1"></feColorMatrix>
            <feMerge>
                <feMergeNode in="shadowMatrixOuter1"></feMergeNode>
                <feMergeNode in="SourceGraphic"></feMergeNode>
            </feMerge>
        </filter>
        <polygon id="path-2" points="28.8625102 0 0.136720694 0 0.136720694 41.0201039 28.8625102 41.0201039 28.8625102 6.47705137e-15"></polygon>
        <polygon id="path-4" points="0 0.257875816 5.77302894 3.57518512 5.77302894 34.4429853 0 37.7602946"></polygon>
    </defs>
    <g id="Page-1" stroke="none" stroke-width="1" fill="none" fill-rule="evenodd">
        <g id="1366-x-768-copy-21" transform="translate(-942.000000, -1899.000000)">
            <g id="Yukfoo" transform="translate(691.000000, 1713.000000)">
                <g id="Yukfoologo" transform="translate(261.000000, 186.000000)">
                    <g id="Page-1" filter="url(#filter-1)" transform="translate(0.000000, 87.168302)">
                        <path d="M11.5003026,34.6812706 L7.84875,14.3533947 C6.67484211,14.0361704 5.54723684,14.6241292 4.692,15.5293121 L3.83403947,14.7599522 C4.51042105,12.7226068 6.85551316,10.865751 9.74171053,10.865751 C12.8530658,10.865751 13.7546053,12.5876953 14.1604342,15.2129995 L16.2803684,30.1991107 C19.2573553,26.2146647 21.7813026,21.2803691 22.5039868,16.752631 C22.2325263,16.9340322 21.8257895,17.0233654 21.3291711,17.0233654 C19.2573553,17.0233654 18.3086053,15.6204685 18.3086053,13.9905922 C18.3086053,12.134648 19.7076711,10.865751 21.6914211,10.865751 C23.9911184,10.865751 25.3901842,12.3142261 25.3901842,15.0325098 C25.3901842,24.7206114 13.0782237,40.838885 4.01380263,40.838885 C1.48894737,40.838885 0,39.4815663 0,37.4888875 C0,35.5873651 1.17481579,34.274713 3.02238158,34.274713 C4.73648684,34.274713 5.72790789,35.4962087 5.72790789,37.126085 C5.72790789,37.7158669 5.54723684,38.3038257 5.27759211,38.6210499 C7.26043421,38.2582475 9.8325,36.5381263 11.5003026,34.6812706" id="Fill-1" fill="#FFFFFF"></path>
                        <path d="M46.7636605,27.7551166 C47.6207132,28.2081639 48.9752921,27.8453614 49.8323447,26.8946002 L50.7329763,27.7551166 C49.8323447,29.9273734 47.9375684,31.5125831 44.8253053,31.5125831 C42.1197789,31.5125831 40.9921737,30.1096862 41.1737526,27.482559 L40.9921737,27.482559 C39.0084237,30.6064886 36.4826605,31.5125831 34.4526079,31.5125831 C31.8378711,31.5125831 29.1332526,29.9738632 29.8995158,25.3103021 L31.7479895,14.3533035 C30.5749895,13.9905011 29.4482921,14.5347047 28.6366342,15.393398 L27.8240684,14.5784598 C28.4568711,12.6769374 30.3507395,10.8656599 33.3713053,10.8656599 C36.7087263,10.8656599 37.9271211,12.7690054 37.3851079,15.8473568 L35.8071868,25.1744791 C35.5375421,26.8034438 35.9424632,27.7095384 37.2498316,27.7095384 C38.6479895,27.7095384 39.9553579,26.8946002 41.2182395,25.6275263 L43.5179368,11.7270878 L49.5599763,11.3196187 L46.7636605,27.7551166 Z" id="Fill-3" fill="#FFFFFF"></path>
                        <path d="M63.3150355,21.7328694 L61.7371145,21.5514682 L60.249075,31.0599916 L54.3414039,31.0599916 L58.7165487,4.30012058 L56.6874039,2.21810854 L56.8226803,1.49432677 L64.2628776,0.227252891 L65.2987855,0.227252891 L62.0521539,19.7857688 L63.7662592,19.4694561 L69.719325,13.7183992 L67.2834434,12.8123047 L67.6892724,11.3191629 L75.7168776,11.3191629 L76.0764039,12.7685496 L72.9659566,13.8542222 L67.9144303,18.7894294 L71.6576803,27.9807286 C72.6500092,28.2514631 73.7767066,28.0263068 74.7236408,26.9843893 L75.5362066,27.7099942 C74.8135224,30.2441419 72.7861934,31.5121274 70.0334566,31.5121274 C67.3751408,31.5121274 66.3365092,30.1985637 65.5248513,27.9351505 L63.3150355,21.7328694 Z" id="Fill-5" fill="#FFFFFF"></path>
                        <g id="Group-9" transform="translate(69.627273, 0.000000)">
                            <mask id="mask-3" fill="white">
                                <use xlink:href="#path-2"></use>
                            </mask>
                            <g id="Clip-8"></g>
                            <path d="M11.9520628,13.6276075 L8.70543122,13.6276075 L9.06677333,11.8619081 L12.4032865,11.1381263 L12.8536023,8.55748881 C14.0710891,2.71618708 17.9487075,-0.000273469183 23.2253917,-0.000273469183 C26.1115891,-0.000273469183 28.8625102,1.04073255 28.8625102,3.89392769 C28.8625102,5.74987187 27.6450233,7.06252395 25.9763128,7.06252395 C24.2640233,7.06252395 23.0465365,5.9312731 23.0465365,4.39255316 C23.0465365,3.21481255 23.585826,2.44545259 24.2177207,1.94682711 C23.8118917,1.81191565 23.3597602,1.76542589 23.0910233,1.76542589 C20.7459312,1.76542589 19.4376549,4.02975072 18.8066681,7.83279548 L18.221076,11.3195276 L23.7211023,11.3195276 L23.0011417,13.6276075 L17.8597339,13.6276075 L14.8836549,31.9208726 C13.9367207,37.443127 10.6446944,41.0201039 4.46737859,41.0201039 C1.6710628,41.0201039 0.136720694,39.617207 0.136720694,37.7603512 C0.136720694,35.7230058 1.49039175,34.7266664 3.06922069,34.7266664 C4.78241806,34.7266664 5.63947069,35.8588289 5.63947069,37.3993719 C5.63947069,38.3501331 5.32261543,38.98367 4.87320754,39.3902276 C6.45022069,39.3902276 7.93916806,38.3036433 8.48118122,34.9536459 L11.9520628,13.6276075 Z" id="Fill-7" fill="#FFFFFF" mask="url(#mask-3)"></path>
                        </g>
                        <path d="M107.284105,20.0125659 L107.373987,18.6078459 C107.510171,14.8959575 106.742092,12.9497685 104.669368,12.9497685 C101.466316,12.9497685 100.249737,17.7035745 99.7540263,22.3671356 C99.7077237,22.8648495 99.61875,23.7700325 99.61875,24.5849707 C99.61875,27.5284106 100.295132,29.429933 102.369671,29.429933 C105.525513,29.429933 106.787487,24.676127 107.284105,20.0125659 M93.5739868,22.8192713 C93.5739868,16.3444326 97.1392895,10.8659333 104.669368,10.8659333 C110.306487,10.8659333 113.463237,14.3070872 113.463237,19.5586071 C113.463237,26.0334458 109.89975,31.511945 102.324276,31.511945 C96.7316447,31.511945 93.5739868,28.0717027 93.5739868,22.8192713" id="Fill-10" fill="#FFFFFF"></path>
                        <path d="M131.454079,20.0125659 L131.545776,18.6078459 C131.681053,14.8959575 130.913882,12.9497685 128.84025,12.9497685 C125.638105,12.9497685 124.420618,17.7035745 123.924,22.3671356 C123.878605,22.8648495 123.788724,23.7700325 123.788724,24.5849707 C123.788724,27.5284106 124.466013,29.429933 126.539645,29.429933 C129.695487,29.429933 130.959276,24.676127 131.454079,20.0125659 M117.745776,22.8192713 C117.745776,16.3444326 121.308355,10.8659333 128.84025,10.8659333 C134.476461,10.8659333 137.633211,14.3070872 137.633211,19.5586071 C137.633211,26.0334458 134.070632,31.511945 126.495158,31.511945 C120.902526,31.511945 117.745776,28.0717027 117.745776,22.8192713" id="Fill-12" fill="#FFFFFF"></path>
                    </g>
                    <g id="Page-1-Copy" transform="translate(35.720029, 0.152886)">
                        <polygon id="Fill-1" fill="#F6F6F6" points="32.8768254 1.60285734 1.79424747 54.4972795 32.8768254 73.0312107 63.9587505 55.1747719 63.9587505 19.4599457"></polygon>
                        <polygon id="Fill-2" points="63.9589463 55.1743822 32.8770212 38.0467511 32.8770212 1.60311717 63.9589463 19.4602055"></polygon>
                        <polygon id="Fill-4" fill="#E3E5E6" points="1.7944433 19.4600756 1.7944433 55.1742523 32.8770212 38.0466212 32.8770212 1.60298725"></polygon>
                        <path d="M32.6377838,6.4956125e-05 L0.000326381103,18.7515991 L0.000326381103,56.2533684 L32.6377838,75.0055521 L65.2758941,56.2533684 L65.2758941,18.7515991 L32.6377838,6.4956125e-05 Z M5.77335532,52.9367086 L5.77335532,22.0689084 L32.6377838,6.63468357 L59.5009069,22.0689084 L59.5009069,52.9367086 L32.6377838,68.3709335 L5.77335532,52.9367086 Z" id="Fill-5" fill="#E14F4A"></path>
                        <polygon id="Fill-6" fill="#F27E80" points="59.501168 22.0689084 59.501168 52.9367086 32.638045 68.3709335 32.638045 75.0055521 65.2761552 56.2533684 65.2761552 18.7515991"></polygon>
                        <path d="M13.8322922,26.1510761 C13.5163553,25.964652 13.11099,26.0692314 12.9256055,26.3803712 C12.7395683,26.6928102 12.842052,27.0968373 13.1566833,27.2826118 L32.3054626,38.5986184 L32.3054626,60.9045517 C32.3054626,61.2689556 32.6018167,61.5625573 32.968669,61.5625573 C33.3335631,61.5625573 33.6299171,61.2689556 33.6299171,60.9045517 L33.6299171,50.2348586 L43.9148384,44.156914 C44.2275115,43.971789 44.3319535,43.5677619 44.143958,43.255323 C43.9585735,42.942884 43.5519026,42.8383046 43.2392295,43.0260278 L33.6299171,48.7038427 L33.6299171,38.5986184 L52.7800019,27.2826118 C53.0939805,27.0968373 53.1977697,26.6928102 53.0110797,26.3803712 C52.8243897,26.0679323 52.4183717,25.9640025 52.104393,26.1510761 L32.968669,37.4586384 L13.8322922,26.1510761 Z" id="Fill-7" fill="#E14F4A"></path>
                        <g id="Group-11" transform="translate(0.000000, 18.493658)">
                            <mask id="mask-5" fill="white">
                                <use xlink:href="#path-4"></use>
                            </mask>
                            <g id="Clip-10"></g>
                            <polygon id="Fill-9" mask="url(#mask-5)" points="0 0.257875816 5.77302894 3.57518512 5.77302894 34.4429853 0 37.7602946"></polygon>
                        </g>
                    </g>
                </g>
            </g>
        </g>
    </g>
</svg>