<?xml version="1.0" encoding="UTF-8" standalone="no"?>
<svg width="110px" height="37px" viewBox="0 0 110 37" version="1.1" xmlns="http://www.w3.org/2000/svg" xmlns:xlink="http://www.w3.org/1999/xlink" xmlns:sketch="http://www.bohemiancoding.com/sketch/ns">
    <!-- Generator: Sketch 3.3.3 (12081) - http://www.bohemiancoding.com/sketch -->
    <title>Layer 1</title>
    <desc>Created with Sketch.</desc>
    <defs></defs>
    <g id="Page-1" stroke="none" stroke-width="1" fill="none" fill-rule="evenodd" sketch:type="MSPage">
        <g id="Mobile-Portrait" sketch:type="MSArtboardGroup" transform="translate(-17.000000, -14.000000)">
            <g id="Layer-1" sketch:type="MSLayerGroup" transform="translate(17.000000, 14.000000)">
                <g id="svg_1" sketch:type="MSShapeGroup">
                    <path d="M33.292057,36.771492 C33.342499,36.82193 33.39294,36.872372 33.443382,36.872372 C33.544269,36.872372 33.645153,36.771492 33.645153,36.670613 L33.645153,36.670613 L33.645153,6.809536 C33.645153,3.02646 30.618605,3.55271368e-15 26.986742,3.55271368e-15 L0,3.55271368e-15 L0,27.036378 C0,30.617686 2.572568,33.593709 5.700004,33.593709 L28.853117,33.593709 C30.971703,33.593709 32.585861,35.056497 33.292057,36.771493 L33.292057,36.771492 Z" id="XMLID_16_" fill="#FFFF00"></path>
                    <path d="M26.885857,27.086817 C24.868159,22.849774 18.108862,7.868795 17.100012,5.750271 L9.584076,5.750271 C11.601776,9.18026 12.509742,12.156278 8.171687,16.746409 C8.070801,16.847294 8.070801,16.948176 8.171687,17.049056 C10.64337,19.3189 14.426557,15.485385 15.132752,12.963334 C16.595584,15.334062 22.800014,25.926671 23.707979,27.238137 C24.51506,28.39828 25.826565,28.34784 26.734529,27.792989 C27.037185,27.641668 26.986742,27.389463 26.885856,27.086814 L26.885856,27.086818 L26.885857,27.086817 Z M9.735403,24.968296 C9.130093,26.178881 9.68496,27.28858 10.592926,27.893873 C10.89558,28.095638 11.147793,27.994756 11.299122,27.792993 C11.450448,27.591228 15.08231,22.799333 17.755762,19.268461 C16.847795,17.755232 16.040716,16.393326 15.435408,15.384503 C13.215937,19.117138 10.239828,24.009914 9.735402,24.968294 L9.735402,24.968296 L9.735403,24.968296 Z" id="XMLID_13_" fill="#000000"></path>
                    <path d="M46.054012,18.108318 L43.582328,11.550988 C43.330115,10.895254 42.623923,10.441285 41.968169,10.441285 L40.303565,10.441285 L44.692065,21.487865 L46.054011,18.108318 L46.054012,18.108318 Z M49.988529,11.550988 L42.926575,28.146078 L44.591179,28.146078 C45.246929,28.146078 45.953129,27.692108 46.205341,27.036377 L53.216846,10.441285 L51.552246,10.441285 C50.946934,10.441286 50.240738,10.895255 49.988529,11.550988 L49.988529,11.550988 Z M89.333694,12.055398 C88.778823,11.450105 88.123069,10.996136 87.315994,10.643049 C86.508903,10.289962 85.651382,10.088197 84.692978,10.088197 C83.734573,10.088197 82.826607,10.289961 82.069969,10.643049 C81.313331,10.996135 80.607132,11.500546 80.052269,12.055398 C79.497398,12.660688 79.093857,13.366863 78.791206,14.17392 C78.488548,14.980975 78.337219,15.838475 78.337219,16.746411 C78.337219,17.654349 78.488548,18.562289 78.791206,19.369343 C79.093856,20.176399 79.497398,20.882572 80.052269,21.487866 C80.607132,22.093159 81.262886,22.597569 82.069969,22.950654 C82.877045,23.303742 83.734573,23.505507 84.692978,23.505507 C85.651383,23.505507 86.559349,23.303742 87.315994,22.950654 C88.072624,22.597569 88.778824,22.093162 89.333694,21.487866 C89.888565,20.882573 90.292091,20.1764 90.594749,19.369343 C90.897415,18.562288 91.048728,17.70479 91.048728,16.746411 C91.048728,15.838475 90.897414,14.980977 90.594749,14.17392 C90.292091,13.366865 89.838119,12.660691 89.333694,12.055398 L89.333694,12.055398 Z M88.274398,18.511847 C88.123061,19.066697 87.870856,19.520667 87.517753,19.924195 C87.215095,20.327721 86.811569,20.680812 86.307144,20.882573 C85.853149,21.134778 85.298294,21.235661 84.69297,21.235661 C84.087661,21.235661 83.532798,21.134778 83.028373,20.882573 C82.574386,20.630368 82.120406,20.327721 81.817748,19.924195 C81.515098,19.520667 81.262885,19.016257 81.06111,18.511847 C80.909781,17.956994 80.808897,17.402144 80.808897,16.796851 C80.808897,16.191562 80.90978,15.63671 81.06111,15.081858 C81.212447,14.527007 81.464652,14.073037 81.817748,13.669511 C82.120406,13.265984 82.523948,12.912895 83.028373,12.71113 C83.482352,12.458925 84.037223,12.358043 84.69297,12.358043 C85.298294,12.358043 85.853149,12.458926 86.307144,12.71113 C86.761123,12.963335 87.164657,13.265982 87.517753,13.669511 C87.820419,14.073037 88.072624,14.577448 88.274398,15.081858 C88.425719,15.63671 88.526603,16.191562 88.526603,16.796851 C88.526603,17.402146 88.42572,17.956998 88.274398,18.511847 L88.274398,18.511847 Z M68.652259,6.708652 L68.652259,23.202861 L70.064651,23.202861 C70.619514,23.202861 71.023056,22.799337 71.023056,22.244479 L71.023056,5.750272 L69.610664,5.750272 C69.055793,5.750272 68.652259,6.1538 68.652259,6.708652 L68.652259,6.708653 L68.652259,6.708652 L68.652259,6.708652 Z M73.847831,6.708652 L73.847831,23.202861 L75.260223,23.202861 C75.815086,23.202861 76.218628,22.799337 76.218628,22.244479 L76.218628,5.750272 L74.806236,5.750272 C74.251373,5.750272 73.847831,6.1538 73.847831,6.708652 L73.847831,6.708653 L73.847831,6.708652 L73.847831,6.708652 Z M108.653167,10.340404 C107.997405,10.340404 107.341659,10.844815 107.139892,11.450106 L107.039001,11.752753 L105.374397,17.250821 L104.668213,19.62155 L101.641663,10.390846 L99.674393,10.390846 L97.152268,17.956998 L96.597405,19.571111 L94.176163,11.752754 L94.125717,11.55099 C93.923958,10.895257 93.268196,10.441288 92.612442,10.441288 L91.300941,10.441288 L95.336341,23.152421 L97.606261,23.152421 L100.632811,13.820835 L103.659361,23.152421 L105.929266,23.152421 L110.015104,10.390848 L108.653166,10.390848 L108.653166,10.340406 L108.653166,10.340407 L108.653166,10.340406 L108.653166,10.340404 L108.653167,10.340404 Z M64.969955,12.105838 C64.415084,11.500548 63.809776,10.996136 63.053138,10.643048 C62.2965,10.28996 61.438979,10.088196 60.430129,10.088196 C59.522162,10.088196 58.664641,10.28996 57.908004,10.643048 C57.151366,10.996134 56.495612,11.450103 55.940746,12.055396 C55.385879,12.660686 54.931896,13.366861 54.629242,14.173918 C54.326588,14.980973 54.175259,15.838473 54.175259,16.746407 C54.175259,17.755227 54.326588,18.663166 54.679684,19.470223 C54.982334,20.277279 55.436322,20.983454 56.04163,21.588749 C56.596497,22.194038 57.302693,22.648007 58.109772,22.950653 C58.916855,23.2533 59.774376,23.455063 60.732785,23.455063 C61.792077,23.455063 62.750485,23.303742 63.557565,22.950653 C64.415086,22.597568 65.121286,22.143598 65.77704,21.487863 L65.928361,21.336542 L65.07084,20.479044 C64.768182,20.125956 64.314202,20.075518 63.961103,20.327723 L63.961103,20.327723 C63.608007,20.630366 63.204465,20.832133 62.750486,21.033896 C62.14517,21.286101 61.438982,21.437426 60.783231,21.437426 C60.379686,21.437426 59.976152,21.386984 59.673494,21.286101 C58.765527,21.134778 57.958448,20.529486 57.353132,19.67199 C57.201814,19.470223 57.050482,19.218018 56.949598,18.965813 C56.899156,18.86493 56.899156,18.76405 56.848707,18.713608 C56.747827,18.410963 56.646944,18.057879 56.596494,17.654349 L66.584115,17.654349 L66.584115,16.948172 C66.584115,15.98979 66.432786,15.132297 66.180573,14.274801 C65.877915,13.467746 65.474381,12.71113 64.969956,12.105838 L64.969956,12.105839 L64.969956,12.105838 L64.969956,12.105839 L64.969955,12.105838 Z M56.646942,15.788032 L56.646942,15.636711 C56.697384,15.334066 56.747825,14.980978 56.899155,14.678332 C57.05048,14.224362 57.302693,13.820833 57.605347,13.417308 C57.908005,13.064219 58.311543,12.761574 58.765526,12.509369 C59.219509,12.257164 59.774376,12.156283 60.379685,12.156283 C61.035439,12.156283 61.59031,12.257166 62.094735,12.509369 C62.548714,12.761574 62.952252,13.064219 63.25491,13.417308 C63.557564,13.770394 63.809777,14.224363 63.961102,14.678332 C64.061989,15.031418 64.162873,15.434947 64.162873,15.788032 L56.646943,15.788032 L56.646942,15.788032 Z" id="XMLID_1_" fill="#FFFFFF"></path>
                </g>
            </g>
        </g>
    </g>
</svg>