<?xml version="1.0" encoding="UTF-8" standalone="no"?>
<svg width="146px" height="24px" viewBox="0 0 146 24" version="1.1" xmlns="http://www.w3.org/2000/svg" xmlns:xlink="http://www.w3.org/1999/xlink" xmlns:sketch="http://www.bohemiancoding.com/sketch/ns">
    <!-- Generator: Sketch 3.3.3 (12081) - http://www.bohemiancoding.com/sketch -->
    <title>Group</title>
    <desc>Created with Sketch.</desc>
    <defs></defs>
    <g id="Page-1" stroke="none" stroke-width="1" fill="none" fill-rule="evenodd" sketch:type="MSPage">
        <g id="Mobile-Portrait-Copy" sketch:type="MSArtboardGroup" transform="translate(-20.000000, -730.000000)">
            <g id="Group" sketch:type="MSLayerGroup" transform="translate(20.000000, 729.000000)">
                <g id="Star-1-Copy-5" transform="translate(0.456250, 0.632053)" stroke="#EBDE03" fill="#FFFF00" sketch:type="MSShapeGroup">
                    <polygon id="Star-1" points="12.0331558 19.4963418 4.80719867 23.3671811 6.18723368 15.1686118 0.341311569 9.36235285 8.42017723 8.16619771 12.0331558 0.706892988 15.6461343 8.16619771 23.725 9.36235285 17.8790779 15.1686118 19.2591129 23.3671811 "></polygon>
                </g>
                <g id="Star-1-Copy-9" transform="translate(91.250000, 0.632053)" stroke="#EAEAEA" sketch:type="MSShapeGroup">
                    <polygon id="Star-1" points="12.0331558 19.4963418 4.80719867 23.3671811 6.18723368 15.1686118 0.341311569 9.36235285 8.42017723 8.16619771 12.0331558 0.706892988 15.6461343 8.16619771 23.725 9.36235285 17.8790779 15.1686118 19.2591129 23.3671811 "></polygon>
                </g>
                <g id="Star-1-Copy-6" transform="translate(30.568750, 0.632053)" stroke="#EBDE03" fill="#FFFF00" sketch:type="MSShapeGroup">
                    <polygon id="Star-1" points="12.0331558 19.4963418 4.80719867 23.3671811 6.18723368 15.1686118 0.341311569 9.36235285 8.42017723 8.16619771 12.0331558 0.706892988 15.6461343 8.16619771 23.725 9.36235285 17.8790779 15.1686118 19.2591129 23.3671811 "></polygon>
                </g>
                <g id="Star-1-Copy-10" transform="translate(121.362500, 0.632053)" stroke="#EAEAEA" sketch:type="MSShapeGroup">
                    <polygon id="Star-1" points="12.0331558 19.4963418 4.80719867 23.3671811 6.18723368 15.1686118 0.341311569 9.36235285 8.42017723 8.16619771 12.0331558 0.706892988 15.6461343 8.16619771 23.725 9.36235285 17.8790779 15.1686118 19.2591129 23.3671811 "></polygon>
                </g>
                <g id="Star-1-Copy-7" transform="translate(60.419263, 0.632053)" stroke="#EBDE03" fill="#FFFF00" sketch:type="MSShapeGroup">
                    <polygon id="Star-1" points="12.0331558 19.4963418 4.80719867 23.3671811 6.18723368 15.1686118 0.341311569 9.36235285 8.42017723 8.16619771 12.0331558 0.706892988 15.6461343 8.16619771 23.725 9.36235285 17.8790779 15.1686118 19.2591129 23.3671811 "></polygon>
                </g>
                <g id="Star-1-Copy-8" transform="translate(91.706250, 0.632053)" stroke="#EBDE03" fill="#FFFF00" sketch:type="MSShapeGroup">
                    <path d="M12.0331558,19.4963418 L4.80719867,23.3671811 L6.18723368,15.1686118 L0.341311569,9.36235285 L8.42017723,8.16619771 L12.0331558,0.706892988" id="Star-1"></path>
                </g>
            </g>
        </g>
    </g>
</svg>